<svg width="54" height="54" viewBox="0 0 54 54" fill="none" xmlns="http://www.w3.org/2000/svg">
<path fill-rule="evenodd" clip-rule="evenodd" d="M15.4431 53.6666H38.5541C47.5949 53.6666 53.6666 47.325 53.6666 37.8887V16.1112C53.6666 6.67495 47.5949 0.333313 38.5568 0.333313H15.4431C6.40497 0.333313 0.333252 6.67495 0.333252 16.1112V37.8887C0.333252 47.325 6.40497 53.6666 15.4431 53.6666ZM17.6635 24.3333C13.9872 24.3333 10.9999 21.342 10.9999 17.6666C10.9999 13.9913 13.9872 11 17.6635 11C21.3372 11 24.3272 13.9913 24.3272 17.6666C24.3272 21.342 21.3372 24.3333 17.6635 24.3333ZM47.8554 34.8239C48.7484 37.1135 48.2845 39.8655 47.3298 42.1331C46.1982 44.83 44.0316 46.872 41.3017 47.7636C40.0897 48.1599 38.8186 48.3333 37.5503 48.3333H15.0763C12.8399 48.3333 10.8609 47.7967 9.2386 46.7977C8.22229 46.1703 8.04263 44.7227 8.79614 43.7843C10.0565 42.2157 11.3007 40.6415 12.5557 39.0536C14.9476 36.0155 16.5592 35.1348 18.3505 35.9081C19.0772 36.2274 19.8065 36.7062 20.5574 37.2126C22.5578 38.572 25.3386 40.4406 29.0015 38.4124C31.5082 37.0085 32.9621 34.6003 34.2281 32.5032L34.2493 32.4682C34.339 32.321 34.4279 32.1739 34.5166 32.0272L34.5166 32.0271C34.9421 31.3231 35.3619 30.6286 35.8368 29.9886C36.4321 29.1878 38.639 26.6835 41.4975 28.4668C43.3183 29.5896 44.8494 31.1087 46.4878 32.7351C47.1126 33.357 47.5578 34.0643 47.8554 34.8239Z" fill="#9FA5C0"/>
</svg>
